<mxfile host="Electron" modified="2024-07-15T09:48:07.511Z" agent="Mozilla/5.0 (Macintosh; Intel Mac OS X 10_15_7) AppleWebKit/537.36 (KHTML, like Gecko) draw.io/24.6.4 Chrome/124.0.6367.207 Electron/30.0.6 Safari/537.36" etag="-Bz_ASZQK7Yer8bpha-M" version="24.6.4" type="device">
  <diagram name="Page-1" id="sTeGwQV9_m6BofXgbJ5z">
    <mxGraphModel dx="3560" dy="2207" grid="1" gridSize="10" guides="1" tooltips="1" connect="1" arrows="1" fold="1" page="1" pageScale="1" pageWidth="1169" pageHeight="1654" math="0" shadow="0">
      <root>
        <mxCell id="0" />
        <mxCell id="1" parent="0" />
        <mxCell id="xYJuTDPwRe8UljyxVZdD-14" value="" style="rounded=1;whiteSpace=wrap;html=1;noLabel=0;imageAspect=1;movable=1;resizable=1;rotatable=1;deletable=1;editable=1;locked=0;connectable=1;strokeColor=none;fillColor=none;fontColor=#333333;" parent="1" vertex="1">
          <mxGeometry x="78.11" y="510" width="857.14" height="240" as="geometry" />
        </mxCell>
        <mxCell id="ui4cIHHtv4yiJSbyvESA-3" value="" style="rounded=1;whiteSpace=wrap;html=1;noLabel=0;imageAspect=1;movable=1;resizable=1;rotatable=1;deletable=1;editable=1;locked=0;connectable=1;strokeColor=none;fillColor=none;fontColor=#333333;" parent="1" vertex="1">
          <mxGeometry x="70" y="60" width="750" height="300" as="geometry" />
        </mxCell>
        <mxCell id="6rD2mT2luqhWMipCLlh9-2" value="&lt;div&gt;&lt;br&gt;&lt;/div&gt;&amp;nbsp; &amp;nbsp; &amp;nbsp; &amp;nbsp; PSTN" style="ellipse;shape=cloud;whiteSpace=wrap;html=1;fillColor=#f8cecc;strokeColor=#b85450;fontSize=16;sketch=1;curveFitting=1;jiggle=2;fontFamily=Verdana;labelPosition=center;verticalLabelPosition=middle;align=center;verticalAlign=top;" parent="1" vertex="1">
          <mxGeometry x="530" y="76" width="160" height="100" as="geometry" />
        </mxCell>
        <mxCell id="FC5b9wgKaY6jjIPhm-6j-130" value="Internet" style="ellipse;shape=cloud;whiteSpace=wrap;html=1;fillColor=#f5f5f5;strokeColor=#666666;fontSize=16;sketch=1;curveFitting=1;jiggle=2;fontFamily=Verdana;labelPosition=center;verticalLabelPosition=middle;align=center;verticalAlign=middle;fontColor=#333333;" parent="1" vertex="1">
          <mxGeometry x="230.00000000000003" y="70" width="410" height="112" as="geometry" />
        </mxCell>
        <mxCell id="FC5b9wgKaY6jjIPhm-6j-168" style="edgeStyle=none;rounded=0;orthogonalLoop=1;jettySize=auto;html=1;exitX=0.84;exitY=-0.002;exitDx=0;exitDy=0;startArrow=none;startFill=0;entryX=0.25;entryY=1;entryDx=0;entryDy=0;exitPerimeter=0;startSize=3;endSize=3;strokeWidth=0.8;endArrow=none;endFill=0;" parent="1" target="FC5b9wgKaY6jjIPhm-6j-217" edge="1">
          <mxGeometry relative="1" as="geometry">
            <mxPoint x="390.1099999999999" y="285.9200000000001" as="sourcePoint" />
            <mxPoint x="165.02714285714285" y="512.9611650485436" as="targetPoint" />
          </mxGeometry>
        </mxCell>
        <mxCell id="FC5b9wgKaY6jjIPhm-6j-215" value="" style="group" parent="1" vertex="1" connectable="0">
          <mxGeometry x="398.11" y="198" width="110" height="68" as="geometry" />
        </mxCell>
        <mxCell id="FC5b9wgKaY6jjIPhm-6j-216" value="" style="group" parent="FC5b9wgKaY6jjIPhm-6j-215" vertex="1" connectable="0">
          <mxGeometry x="11.411577564146885" width="98.588422435853" height="68" as="geometry" />
        </mxCell>
        <mxCell id="FC5b9wgKaY6jjIPhm-6j-217" value="&lt;div&gt;cortafuegix&lt;br&gt;(PBX)&lt;/div&gt;&lt;div&gt;&lt;font style=&quot;font-size: 9px;&quot; face=&quot;Courier New&quot;&gt;192.168.100.1&lt;/font&gt;&lt;/div&gt;" style="shape=parallelogram;perimeter=parallelogramPerimeter;whiteSpace=wrap;html=1;fixedSize=1;size=-21;rounded=1;fontSize=12;strokeWidth=1;sketch=1;curveFitting=1;jiggle=2;fillColor=#FFFEEB;strokeColor=#D6B656;fillStyle=solid;arcSize=16;verticalAlign=middle;gradientColor=#CCFFCC;gradientDirection=south;" parent="FC5b9wgKaY6jjIPhm-6j-216" vertex="1">
          <mxGeometry width="93.90235644960183" height="58.04683840749416" as="geometry" />
        </mxCell>
        <mxCell id="FC5b9wgKaY6jjIPhm-6j-249" style="edgeStyle=none;rounded=0;orthogonalLoop=1;jettySize=auto;html=1;exitX=0.5;exitY=0;exitDx=0;exitDy=0;startArrow=none;startFill=0;entryX=0.55;entryY=0.95;entryDx=0;entryDy=0;startSize=3;endSize=3;strokeWidth=0.8;endArrow=none;endFill=0;entryPerimeter=0;" parent="1" source="FC5b9wgKaY6jjIPhm-6j-217" target="FC5b9wgKaY6jjIPhm-6j-130" edge="1">
          <mxGeometry relative="1" as="geometry">
            <mxPoint x="348.89" y="318" as="sourcePoint" />
            <mxPoint x="407.89" y="253" as="targetPoint" />
          </mxGeometry>
        </mxCell>
        <mxCell id="FC5b9wgKaY6jjIPhm-6j-251" style="edgeStyle=none;rounded=0;orthogonalLoop=1;jettySize=auto;html=1;exitX=0.5;exitY=0;exitDx=0;exitDy=0;startArrow=none;startFill=0;entryX=0.75;entryY=1;entryDx=0;entryDy=0;exitPerimeter=0;startSize=3;endSize=3;strokeWidth=0.8;endArrow=none;endFill=0;" parent="1" target="FC5b9wgKaY6jjIPhm-6j-217" edge="1">
          <mxGeometry relative="1" as="geometry">
            <mxPoint x="521.8899999999999" y="286" as="sourcePoint" />
            <mxPoint x="442.89" y="270" as="targetPoint" />
          </mxGeometry>
        </mxCell>
        <mxCell id="FC5b9wgKaY6jjIPhm-6j-255" value="" style="shape=image;aspect=fixed;image=data:image/svg+xml,PHN2ZyByb2xlPSJpbWciIHZpZXdCb3g9IjAgMCAyNCAyNCIgeG1sbnM9Imh0dHA6Ly93d3cudzMub3JnLzIwMDAvc3ZnIj48dGl0bGU+Wm9pcGVyPC90aXRsZT48cGF0aCBkPSJNMy4zNzUxIDEzLjA3ODZjLS44NjI0LS44NjI0LS44NjI0LTIuOTI1Ni0uMDc0OC0zLjcxMzFzMy4yNjI1LTMuMjI1IDUuMDYyMS01LjAyNDdjMS44MDA0LTEuNzk5NiAzLjM3NTUtMi4wNjI0IDMuODYyOS0yLjA2MjRIMTUuOWMuMjIyMyAwIC41NTI3LjAzMjIuOTIzNi4wODg0bC0xLjA4NyAyLjE2NjRjLS44NzM4LS4wNjI5LTEuNjgxMS0uMDQyMi0yLjI3NC0uMDQyMi0yLjQzNzQgMC0yLjYyNTQuNTYyMi0zLjAzNzguOTc0Ny0uNDEyNS40MTI1LTUuMDYyMSA0LjgzNzUtNS4zOTk3IDUuMTc1Mi0xLjA1MDQgMS4wNTAzLjU2MjEgMS41Mzc2IDIuMzI1MiAxLjUzNzYuNzg3NSAwIC44OTk4LjgyNS43MTE5IDEuNTc1MS0uMTAxOC40MDc5LS4zNjg0IDEuNDMtLjU5MTkgMi41Mjg1aC0yLjEzOWMuMDgzNC0uNDIzNy4xNjQ4LS43NzEyLjIxODQtLjk1NC4xODgtLjYzNy4yMjUzLTEuMi0uMTQ5Ny0xLjJzLTEuMTYyNi0uMTg3MS0yLjAyNDktMS4wNDk1em0xOC4wNDI1LTkuOTE5NWMtLjE5NjUtLjE5NjUtMi4xODQtMS4zNDk3LTIuNzcyNi0xLjYyMDEtLjE2MTQtLjA3MzktLjI5OTMtLjEwNDctLjQxNzItLjEwNDctLjMxMjYgMC0uNDg1My4yMTYyLS41ODcyLjQxOTNsLTMuMTE3OSA2LjIxMzZjLTEuNTY0LjQ0NzMtMi43MTA0IDEuODg3Mi0yLjcxMDQgMy41OTUgMCAxLjQzNTUuODA4OCAyLjY4MTUgMS45OTYgMy4zMDkxLS40NTc1LjU0MzUtMS4xMzM3IDEuMTAwNS0xLjI5MTkgMS4yODUxLS4yMjU0LjI2MjgtLjc4NzUuNTI1Ni0xLjc2My41MjU2SDQuMzY3MmMtLjAyOTgtMS4xODA0LS45OTUxLTIuMTI4Ny0yLjE4MzItMi4xMjg3LTEuMjA2IDAtMi4xODQuOTc4LTIuMTg0IDIuMTg0IDAgMS4yMDY4Ljk3OCAyLjE4NDkgMi4xODQgMi4xODQ5LjkxODUgMCAxLjcwMzYtLjU2NjQgMi4wMjY3LTEuMzY5M2g3LjAzOTRjLjk3NDcgMCAxLjUzNzctLjI2MiAxLjc2MjItLjUyNDguMjEzNC0uMjQ5MSAxLjM2NTgtMS4xNzI4IDEuNjU4NC0xLjgzMTEuMjgyNC4wNjg5LjU3ODQuMTA2My44ODI4LjEwNjMgMi4wNjU5IDAgMy43NDA0LTEuNjc0NiAzLjc0MDQtMy43NDEyYTMuNzI4OCAzLjcyODggMCAwIDAtLjUzMTYtMS45MjIxIDcwMDYuNTM1MiA3MDA2LjUzNTIgMCAwIDEgMi43NTMtNS41NTAyYy4yNzA1LS41Mzk5LjA5ODgtLjgzNDItLjA5NzctMS4wMzA3em0uMjg2NyAxLjc3NDJjLS4yMzc3LjQ3ODYtLjYwMTggMS4yMTI4LS45OTMgMi4wMDE0LjY5NyAxLjAwNjEgMS4xNTE2IDIuNDExOSAxLjE1MTYgNC40MTg4IDAgNS4wOTk1LTIuNzAwMyA1LjY2MjUtMy4yNjI1IDUuNjYyNWgtMi4xMzgxYy0uNDQ5OSAwLS43ODc1LjA3NDgtMS42MTI1Ljg5OTgtLjgyNS44MjUtMS45ODc1IDEuODM3LTIuMzI1MiAyLjE3NDYtLjMzNjguMzM3Ni0uODI1LjU2My0xLjY4NzMuNTYzaC0yLjY2MmMtLjM3NTEgMC0xLjA1MDMtLjE4OC0xLjA1MDMtMS43NjMxIDAtLjIyMS4wMjEyLS40NzQ5LjA0ODgtLjczNzRINS4wNTkxYy0uMDU4MS42NDA5LS4wNzQ5IDEuMjc3Ni4wMDM0IDEuNzg3Mi4yMjUzIDEuNDYyOCAxLjQyNTQgMi42MjU0IDIuNDM3NCAyLjYyNTRoMy45NzUyYzEuODM3OCAwIDUuMjEyNi0zLjQxMjEgNS4yMTI2LTMuNDEyMXMxLjEwNzMuMDY4MSAxLjc2My4wNTAyQzIwLjQ4NzUgMTkuMTQ4NSAyNCAxNy40NjYyIDI0IDExLjg0MTJjMC0zLjMxNDQtLjk5NTItNS40Nzc1LTIuMjk1Ny02LjkwNzl6Ii8+PC9zdmc+;flipH=1;" parent="1" vertex="1">
          <mxGeometry x="308.11" y="289" width="32" height="32" as="geometry" />
        </mxCell>
        <mxCell id="n89JUUo40EuDS-jGkRUY-6" value="&lt;div&gt;&lt;span style=&quot;background-color: initial;&quot;&gt;Proxy SIP&lt;/span&gt;&lt;/div&gt;&lt;div&gt;&lt;span style=&quot;font-size: 9px; font-family: &amp;quot;Courier New&amp;quot;; background-color: initial;&quot;&gt;10.31.255.134:5070&lt;/span&gt;&lt;br&gt;&lt;/div&gt;" style="shape=parallelogram;perimeter=parallelogramPerimeter;whiteSpace=wrap;html=1;fixedSize=1;size=-21;rounded=1;fontSize=12;strokeWidth=1;sketch=1;curveFitting=1;jiggle=2;fillColor=#f8cecc;strokeColor=#b85450;fillStyle=solid;arcSize=16;verticalAlign=middle;gradientDirection=south;" parent="1" vertex="1">
          <mxGeometry x="490.86" y="128.53" width="109.14" height="34.12" as="geometry" />
        </mxCell>
        <mxCell id="d1PoRx8PaVclEIfw0R-f-2" value="&lt;font style=&quot;font-size: 6px;&quot;&gt;6&lt;/font&gt;" style="shape=cylinder3;whiteSpace=wrap;html=1;boundedLbl=1;backgroundOutline=1;size=1.6140350877192589;verticalAlign=top;fillColor=#FFFFFF;strokeColor=#1A1A1A;gradientColor=#EEEEEE;fontSize=8;strokeWidth=0.3937;" parent="1" vertex="1">
          <mxGeometry x="442.05" y="162.65" width="5.9055" height="40" as="geometry" />
        </mxCell>
        <mxCell id="d1PoRx8PaVclEIfw0R-f-5" value="&lt;span style=&quot;font-size: 6px;&quot;&gt;2&lt;/span&gt;" style="shape=cylinder3;whiteSpace=wrap;html=1;boundedLbl=1;backgroundOutline=1;size=1.6140350877192589;verticalAlign=top;fillColor=#ffe6cc;strokeColor=#d79b00;fontSize=8;strokeWidth=0.3937;rotation=-30;" parent="1" vertex="1">
          <mxGeometry x="410" y="165.15" width="5.9055" height="40" as="geometry" />
        </mxCell>
        <mxCell id="d1PoRx8PaVclEIfw0R-f-6" value="&lt;font style=&quot;font-size: 6px;&quot;&gt;3&lt;/font&gt;" style="shape=cylinder3;whiteSpace=wrap;html=1;boundedLbl=1;backgroundOutline=1;size=1.6140350877192589;verticalAlign=top;fillColor=#f8cecc;strokeColor=#b85450;fontSize=8;strokeWidth=0.3937;rotation=20;" parent="1" vertex="1">
          <mxGeometry x="490.86" y="160.15" width="5.91" height="45" as="geometry" />
        </mxCell>
        <mxCell id="d1PoRx8PaVclEIfw0R-f-8" value="&lt;div&gt;&lt;span style=&quot;background-color: initial;&quot;&gt;IPTV&lt;/span&gt;&lt;br&gt;&lt;/div&gt;" style="shape=parallelogram;perimeter=parallelogramPerimeter;whiteSpace=wrap;html=1;fixedSize=1;size=-21;rounded=1;fontSize=12;strokeWidth=1;fillColor=#ffe6cc;strokeColor=#d79b00;fillStyle=solid;arcSize=16;verticalAlign=middle;gradientDirection=south;" parent="1" vertex="1">
          <mxGeometry x="374.82" y="150" width="35.18" height="15.15" as="geometry" />
        </mxCell>
        <mxCell id="d1PoRx8PaVclEIfw0R-f-9" value="&lt;div style=&quot;font-size: 11px;&quot;&gt;&lt;font style=&quot;font-size: 11px;&quot;&gt;Zoiper&lt;/font&gt;&lt;/div&gt;&lt;div style=&quot;font-size: 11px;&quot;&gt;&lt;font style=&quot;font-size: 11px;&quot;&gt;iPhone&lt;br&gt;luispa&lt;/font&gt;&lt;/div&gt;&lt;div style=&quot;font-size: 11px;&quot;&gt;&lt;font style=&quot;font-size: 11px;&quot;&gt;101&lt;/font&gt;&lt;/div&gt;" style="shape=parallelogram;perimeter=parallelogramPerimeter;whiteSpace=wrap;html=1;fixedSize=1;size=-13.639999999999873;rounded=1;fontSize=12;strokeWidth=1;sketch=1;curveFitting=1;jiggle=2;fillColor=#FFFFFF;strokeColor=#000000;fillStyle=solid;arcSize=19;verticalAlign=top;gradientColor=#93CDF2;gradientDirection=south;points=[[0,0,0,0,0],[0,0.25,0,0,0],[0,0.5,0,0,0],[0,0.75,0,0,0],[0,1,0,0,0],[0.07,1,0,0,0],[0.13,0,0,0,0],[0.13,1,0,0,0],[0.19,1,0,0,0],[0.25,0,0,0,0],[0.25,1,0,0,0],[0.31,1,0,0,0],[0.37,0,0,0,0],[0.37,1,0,0,0],[0.44,1,0,0,0],[0.5,0,0,0,0],[0.5,1,0,0,0],[0.57,1,0,0,0],[0.63,0,0,0,0],[0.63,1,0,0,0],[0.69,1,0,0,0],[0.75,0,0,0,0],[0.75,1,0,0,0],[0.81,1,0,0,0],[0.85,0,0,0,-3],[0.87,1,0,0,0],[0.94,1,0,0,0],[1,0,0,0,0],[1,0.25,0,0,0],[1,0.5,0,0,0],[1,0.75,0,0,0],[1,1,0,0,0]];" parent="1" vertex="1">
          <mxGeometry x="343.11" y="280" width="50" height="74" as="geometry" />
        </mxCell>
        <mxCell id="d1PoRx8PaVclEIfw0R-f-10" value="&lt;div style=&quot;font-size: 11px;&quot;&gt;&lt;font style=&quot;font-size: 11px;&quot;&gt;Zoiper&lt;/font&gt;&lt;/div&gt;&lt;div style=&quot;font-size: 11px;&quot;&gt;&lt;font style=&quot;font-size: 11px;&quot;&gt;MacOS&lt;/font&gt;&lt;/div&gt;&lt;div style=&quot;font-size: 11px;&quot;&gt;luison&lt;br&gt;102&lt;/div&gt;" style="shape=parallelogram;perimeter=parallelogramPerimeter;whiteSpace=wrap;html=1;fixedSize=1;size=-13.639999999999873;rounded=1;fontSize=12;strokeWidth=1;sketch=1;curveFitting=1;jiggle=2;fillColor=#FFFFFF;strokeColor=#000000;fillStyle=solid;arcSize=19;verticalAlign=top;gradientColor=#93CDF2;gradientDirection=south;points=[[0,0,0,0,0],[0,0.25,0,0,0],[0,0.5,0,0,0],[0,0.75,0,0,0],[0,1,0,0,0],[0.07,1,0,0,0],[0.13,0,0,0,0],[0.13,1,0,0,0],[0.19,1,0,0,0],[0.25,0,0,0,0],[0.25,1,0,0,0],[0.31,1,0,0,0],[0.37,0,0,0,0],[0.37,1,0,0,0],[0.44,1,0,0,0],[0.5,0,0,0,0],[0.5,1,0,0,0],[0.57,1,0,0,0],[0.63,0,0,0,0],[0.63,1,0,0,0],[0.69,1,0,0,0],[0.75,0,0,0,0],[0.75,1,0,0,0],[0.81,1,0,0,0],[0.85,0,0,0,-3],[0.87,1,0,0,0],[0.94,1,0,0,0],[1,0,0,0,0],[1,0.25,0,0,0],[1,0.5,0,0,0],[1,0.75,0,0,0],[1,1,0,0,0]];" parent="1" vertex="1">
          <mxGeometry x="507" y="280" width="50" height="74" as="geometry" />
        </mxCell>
        <mxCell id="d1PoRx8PaVclEIfw0R-f-12" value="" style="shape=image;aspect=fixed;image=data:image/svg+xml,PHN2ZyByb2xlPSJpbWciIHZpZXdCb3g9IjAgMCAyNCAyNCIgeG1sbnM9Imh0dHA6Ly93d3cudzMub3JnLzIwMDAvc3ZnIj48dGl0bGU+Wm9pcGVyPC90aXRsZT48cGF0aCBkPSJNMy4zNzUxIDEzLjA3ODZjLS44NjI0LS44NjI0LS44NjI0LTIuOTI1Ni0uMDc0OC0zLjcxMzFzMy4yNjI1LTMuMjI1IDUuMDYyMS01LjAyNDdjMS44MDA0LTEuNzk5NiAzLjM3NTUtMi4wNjI0IDMuODYyOS0yLjA2MjRIMTUuOWMuMjIyMyAwIC41NTI3LjAzMjIuOTIzNi4wODg0bC0xLjA4NyAyLjE2NjRjLS44NzM4LS4wNjI5LTEuNjgxMS0uMDQyMi0yLjI3NC0uMDQyMi0yLjQzNzQgMC0yLjYyNTQuNTYyMi0zLjAzNzguOTc0Ny0uNDEyNS40MTI1LTUuMDYyMSA0LjgzNzUtNS4zOTk3IDUuMTc1Mi0xLjA1MDQgMS4wNTAzLjU2MjEgMS41Mzc2IDIuMzI1MiAxLjUzNzYuNzg3NSAwIC44OTk4LjgyNS43MTE5IDEuNTc1MS0uMTAxOC40MDc5LS4zNjg0IDEuNDMtLjU5MTkgMi41Mjg1aC0yLjEzOWMuMDgzNC0uNDIzNy4xNjQ4LS43NzEyLjIxODQtLjk1NC4xODgtLjYzNy4yMjUzLTEuMi0uMTQ5Ny0xLjJzLTEuMTYyNi0uMTg3MS0yLjAyNDktMS4wNDk1em0xOC4wNDI1LTkuOTE5NWMtLjE5NjUtLjE5NjUtMi4xODQtMS4zNDk3LTIuNzcyNi0xLjYyMDEtLjE2MTQtLjA3MzktLjI5OTMtLjEwNDctLjQxNzItLjEwNDctLjMxMjYgMC0uNDg1My4yMTYyLS41ODcyLjQxOTNsLTMuMTE3OSA2LjIxMzZjLTEuNTY0LjQ0NzMtMi43MTA0IDEuODg3Mi0yLjcxMDQgMy41OTUgMCAxLjQzNTUuODA4OCAyLjY4MTUgMS45OTYgMy4zMDkxLS40NTc1LjU0MzUtMS4xMzM3IDEuMTAwNS0xLjI5MTkgMS4yODUxLS4yMjU0LjI2MjgtLjc4NzUuNTI1Ni0xLjc2My41MjU2SDQuMzY3MmMtLjAyOTgtMS4xODA0LS45OTUxLTIuMTI4Ny0yLjE4MzItMi4xMjg3LTEuMjA2IDAtMi4xODQuOTc4LTIuMTg0IDIuMTg0IDAgMS4yMDY4Ljk3OCAyLjE4NDkgMi4xODQgMi4xODQ5LjkxODUgMCAxLjcwMzYtLjU2NjQgMi4wMjY3LTEuMzY5M2g3LjAzOTRjLjk3NDcgMCAxLjUzNzctLjI2MiAxLjc2MjItLjUyNDguMjEzNC0uMjQ5MSAxLjM2NTgtMS4xNzI4IDEuNjU4NC0xLjgzMTEuMjgyNC4wNjg5LjU3ODQuMTA2My44ODI4LjEwNjMgMi4wNjU5IDAgMy43NDA0LTEuNjc0NiAzLjc0MDQtMy43NDEyYTMuNzI4OCAzLjcyODggMCAwIDAtLjUzMTYtMS45MjIxIDcwMDYuNTM1MiA3MDA2LjUzNTIgMCAwIDEgMi43NTMtNS41NTAyYy4yNzA1LS41Mzk5LjA5ODgtLjgzNDItLjA5NzctMS4wMzA3em0uMjg2NyAxLjc3NDJjLS4yMzc3LjQ3ODYtLjYwMTggMS4yMTI4LS45OTMgMi4wMDE0LjY5NyAxLjAwNjEgMS4xNTE2IDIuNDExOSAxLjE1MTYgNC40MTg4IDAgNS4wOTk1LTIuNzAwMyA1LjY2MjUtMy4yNjI1IDUuNjYyNWgtMi4xMzgxYy0uNDQ5OSAwLS43ODc1LjA3NDgtMS42MTI1Ljg5OTgtLjgyNS44MjUtMS45ODc1IDEuODM3LTIuMzI1MiAyLjE3NDYtLjMzNjguMzM3Ni0uODI1LjU2My0xLjY4NzMuNTYzaC0yLjY2MmMtLjM3NTEgMC0xLjA1MDMtLjE4OC0xLjA1MDMtMS43NjMxIDAtLjIyMS4wMjEyLS40NzQ5LjA0ODgtLjczNzRINS4wNTkxYy0uMDU4MS42NDA5LS4wNzQ5IDEuMjc3Ni4wMDM0IDEuNzg3Mi4yMjUzIDEuNDYyOCAxLjQyNTQgMi42MjU0IDIuNDM3NCAyLjYyNTRoMy45NzUyYzEuODM3OCAwIDUuMjEyNi0zLjQxMjEgNS4yMTI2LTMuNDEyMXMxLjEwNzMuMDY4MSAxLjc2My4wNTAyQzIwLjQ4NzUgMTkuMTQ4NSAyNCAxNy40NjYyIDI0IDExLjg0MTJjMC0zLjMxNDQtLjk5NTItNS40Nzc1LTIuMjk1Ny02LjkwNzl6Ii8+PC9zdmc+;" parent="1" vertex="1">
          <mxGeometry x="560.3199999999999" y="290" width="30" height="30" as="geometry" />
        </mxCell>
        <mxCell id="sKDoF6U-TudW3Q7Fj5fA-1" value="" style="group" vertex="1" connectable="0" parent="1">
          <mxGeometry x="303.89" y="527.85" width="347.61" height="192.15" as="geometry" />
        </mxCell>
        <mxCell id="xYJuTDPwRe8UljyxVZdD-1" style="edgeStyle=none;rounded=0;orthogonalLoop=1;jettySize=auto;html=1;exitX=0.84;exitY=-0.002;exitDx=0;exitDy=0;startArrow=none;startFill=0;entryX=0.25;entryY=1;entryDx=0;entryDy=0;exitPerimeter=0;startSize=3;endSize=3;strokeWidth=0.8;endArrow=none;endFill=0;" parent="sKDoF6U-TudW3Q7Fj5fA-1" target="xYJuTDPwRe8UljyxVZdD-4" edge="1">
          <mxGeometry relative="1" as="geometry">
            <mxPoint x="101.00287020304019" y="108.29376923076933" as="sourcePoint" />
            <mxPoint x="-176.24121034488002" y="387.94735810306196" as="targetPoint" />
          </mxGeometry>
        </mxCell>
        <mxCell id="xYJuTDPwRe8UljyxVZdD-2" value="" style="group" parent="sKDoF6U-TudW3Q7Fj5fA-1" vertex="1" connectable="0">
          <mxGeometry x="110.8568087594345" width="135.49165515041994" height="83.75769230769231" as="geometry" />
        </mxCell>
        <mxCell id="xYJuTDPwRe8UljyxVZdD-3" value="" style="group" parent="xYJuTDPwRe8UljyxVZdD-2" vertex="1" connectable="0">
          <mxGeometry x="14.056123018578718" width="121.4355321318411" height="83.75769230769231" as="geometry" />
        </mxCell>
        <mxCell id="xYJuTDPwRe8UljyxVZdD-4" value="&lt;div&gt;cortafuegix&lt;br&gt;(PBX)&lt;/div&gt;&lt;div&gt;&lt;font style=&quot;font-size: 9px;&quot; face=&quot;Courier New&quot;&gt;192.168.100.1&lt;/font&gt;&lt;/div&gt;" style="shape=parallelogram;perimeter=parallelogramPerimeter;whiteSpace=wrap;html=1;fixedSize=1;size=-21;rounded=1;fontSize=12;strokeWidth=1;sketch=1;curveFitting=1;jiggle=2;fillColor=#FFFEEB;strokeColor=#D6B656;fillStyle=solid;arcSize=16;verticalAlign=middle;gradientColor=#CCFFCC;gradientDirection=south;" parent="xYJuTDPwRe8UljyxVZdD-3" vertex="1">
          <mxGeometry width="115.66350634437512" height="71.49807692307694" as="geometry" />
        </mxCell>
        <mxCell id="xYJuTDPwRe8UljyxVZdD-6" style="edgeStyle=none;rounded=0;orthogonalLoop=1;jettySize=auto;html=1;exitX=0.5;exitY=0;exitDx=0;exitDy=0;startArrow=none;startFill=0;entryX=0.75;entryY=1;entryDx=0;entryDy=0;exitPerimeter=0;startSize=3;endSize=3;strokeWidth=0.8;endArrow=none;endFill=0;" parent="sKDoF6U-TudW3Q7Fj5fA-1" target="xYJuTDPwRe8UljyxVZdD-4" edge="1">
          <mxGeometry relative="1" as="geometry">
            <mxPoint x="263.32187307324324" y="108.3923076923077" as="sourcePoint" />
            <mxPoint x="166.0142298288509" y="88.68461538461538" as="targetPoint" />
          </mxGeometry>
        </mxCell>
        <mxCell id="xYJuTDPwRe8UljyxVZdD-7" value="" style="shape=image;aspect=fixed;image=data:image/svg+xml,PHN2ZyByb2xlPSJpbWciIHZpZXdCb3g9IjAgMCAyNCAyNCIgeG1sbnM9Imh0dHA6Ly93d3cudzMub3JnLzIwMDAvc3ZnIj48dGl0bGU+Wm9pcGVyPC90aXRsZT48cGF0aCBkPSJNMy4zNzUxIDEzLjA3ODZjLS44NjI0LS44NjI0LS44NjI0LTIuOTI1Ni0uMDc0OC0zLjcxMzFzMy4yNjI1LTMuMjI1IDUuMDYyMS01LjAyNDdjMS44MDA0LTEuNzk5NiAzLjM3NTUtMi4wNjI0IDMuODYyOS0yLjA2MjRIMTUuOWMuMjIyMyAwIC41NTI3LjAzMjIuOTIzNi4wODg0bC0xLjA4NyAyLjE2NjRjLS44NzM4LS4wNjI5LTEuNjgxMS0uMDQyMi0yLjI3NC0uMDQyMi0yLjQzNzQgMC0yLjYyNTQuNTYyMi0zLjAzNzguOTc0Ny0uNDEyNS40MTI1LTUuMDYyMSA0LjgzNzUtNS4zOTk3IDUuMTc1Mi0xLjA1MDQgMS4wNTAzLjU2MjEgMS41Mzc2IDIuMzI1MiAxLjUzNzYuNzg3NSAwIC44OTk4LjgyNS43MTE5IDEuNTc1MS0uMTAxOC40MDc5LS4zNjg0IDEuNDMtLjU5MTkgMi41Mjg1aC0yLjEzOWMuMDgzNC0uNDIzNy4xNjQ4LS43NzEyLjIxODQtLjk1NC4xODgtLjYzNy4yMjUzLTEuMi0uMTQ5Ny0xLjJzLTEuMTYyNi0uMTg3MS0yLjAyNDktMS4wNDk1em0xOC4wNDI1LTkuOTE5NWMtLjE5NjUtLjE5NjUtMi4xODQtMS4zNDk3LTIuNzcyNi0xLjYyMDEtLjE2MTQtLjA3MzktLjI5OTMtLjEwNDctLjQxNzItLjEwNDctLjMxMjYgMC0uNDg1My4yMTYyLS41ODcyLjQxOTNsLTMuMTE3OSA2LjIxMzZjLTEuNTY0LjQ0NzMtMi43MTA0IDEuODg3Mi0yLjcxMDQgMy41OTUgMCAxLjQzNTUuODA4OCAyLjY4MTUgMS45OTYgMy4zMDkxLS40NTc1LjU0MzUtMS4xMzM3IDEuMTAwNS0xLjI5MTkgMS4yODUxLS4yMjU0LjI2MjgtLjc4NzUuNTI1Ni0xLjc2My41MjU2SDQuMzY3MmMtLjAyOTgtMS4xODA0LS45OTUxLTIuMTI4Ny0yLjE4MzItMi4xMjg3LTEuMjA2IDAtMi4xODQuOTc4LTIuMTg0IDIuMTg0IDAgMS4yMDY4Ljk3OCAyLjE4NDkgMi4xODQgMi4xODQ5LjkxODUgMCAxLjcwMzYtLjU2NjQgMi4wMjY3LTEuMzY5M2g3LjAzOTRjLjk3NDcgMCAxLjUzNzctLjI2MiAxLjc2MjItLjUyNDguMjEzNC0uMjQ5MSAxLjM2NTgtMS4xNzI4IDEuNjU4NC0xLjgzMTEuMjgyNC4wNjg5LjU3ODQuMTA2My44ODI4LjEwNjMgMi4wNjU5IDAgMy43NDA0LTEuNjc0NiAzLjc0MDQtMy43NDEyYTMuNzI4OCAzLjcyODggMCAwIDAtLjUzMTYtMS45MjIxIDcwMDYuNTM1MiA3MDA2LjUzNTIgMCAwIDEgMi43NTMtNS41NTAyYy4yNzA1LS41Mzk5LjA5ODgtLjgzNDItLjA5NzctMS4wMzA3em0uMjg2NyAxLjc3NDJjLS4yMzc3LjQ3ODYtLjYwMTggMS4yMTI4LS45OTMgMi4wMDE0LjY5NyAxLjAwNjEgMS4xNTE2IDIuNDExOSAxLjE1MTYgNC40MTg4IDAgNS4wOTk1LTIuNzAwMyA1LjY2MjUtMy4yNjI1IDUuNjYyNWgtMi4xMzgxYy0uNDQ5OSAwLS43ODc1LjA3NDgtMS42MTI1Ljg5OTgtLjgyNS44MjUtMS45ODc1IDEuODM3LTIuMzI1MiAyLjE3NDYtLjMzNjguMzM3Ni0uODI1LjU2My0xLjY4NzMuNTYzaC0yLjY2MmMtLjM3NTEgMC0xLjA1MDMtLjE4OC0xLjA1MDMtMS43NjMxIDAtLjIyMS4wMjEyLS40NzQ5LjA0ODgtLjczNzRINS4wNTkxYy0uMDU4MS42NDA5LS4wNzQ5IDEuMjc3Ni4wMDM0IDEuNzg3Mi4yMjUzIDEuNDYyOCAxLjQyNTQgMi42MjU0IDIuNDM3NCAyLjYyNTRoMy45NzUyYzEuODM3OCAwIDUuMjEyNi0zLjQxMjEgNS4yMTI2LTMuNDEyMXMxLjEwNzMuMDY4MSAxLjc2My4wNTAyQzIwLjQ4NzUgMTkuMTQ4NSAyNCAxNy40NjYyIDI0IDExLjg0MTJjMC0zLjMxNDQtLjk5NTItNS40Nzc1LTIuMjk1Ny02LjkwNzl6Ii8+PC9zdmc+;flipH=1;" parent="sKDoF6U-TudW3Q7Fj5fA-1" vertex="1">
          <mxGeometry y="112.0875" width="39.41538461538462" height="39.41538461538462" as="geometry" />
        </mxCell>
        <mxCell id="xYJuTDPwRe8UljyxVZdD-11" value="&lt;div style=&quot;font-size: 11px;&quot;&gt;&lt;font style=&quot;font-size: 11px;&quot;&gt;Zoiper&lt;/font&gt;&lt;/div&gt;&lt;div style=&quot;font-size: 11px;&quot;&gt;&lt;font style=&quot;font-size: 11px;&quot;&gt;iPhone&lt;br&gt;luispa&lt;/font&gt;&lt;/div&gt;&lt;div style=&quot;font-size: 11px;&quot;&gt;&lt;font style=&quot;font-size: 11px;&quot;&gt;101&lt;/font&gt;&lt;/div&gt;" style="shape=parallelogram;perimeter=parallelogramPerimeter;whiteSpace=wrap;html=1;fixedSize=1;size=-13.639999999999873;rounded=1;fontSize=12;strokeWidth=1;sketch=1;curveFitting=1;jiggle=2;fillColor=#FFFFFF;strokeColor=#000000;fillStyle=solid;arcSize=19;verticalAlign=top;gradientColor=#93CDF2;gradientDirection=south;points=[[0,0,0,0,0],[0,0.25,0,0,0],[0,0.5,0,0,0],[0,0.75,0,0,0],[0,1,0,0,0],[0.07,1,0,0,0],[0.13,0,0,0,0],[0.13,1,0,0,0],[0.19,1,0,0,0],[0.25,0,0,0,0],[0.25,1,0,0,0],[0.31,1,0,0,0],[0.37,0,0,0,0],[0.37,1,0,0,0],[0.44,1,0,0,0],[0.5,0,0,0,0],[0.5,1,0,0,0],[0.57,1,0,0,0],[0.63,0,0,0,0],[0.63,1,0,0,0],[0.69,1,0,0,0],[0.75,0,0,0,0],[0.75,1,0,0,0],[0.81,1,0,0,0],[0.85,0,0,0,-3],[0.87,1,0,0,0],[0.94,1,0,0,0],[1,0,0,0,0],[1,0.25,0,0,0],[1,0.5,0,0,0],[1,0.75,0,0,0],[1,1,0,0,0]];" parent="sKDoF6U-TudW3Q7Fj5fA-1" vertex="1">
          <mxGeometry x="43.11098118422453" y="101.00192307692308" width="61.58711597746361" height="91.14807692307693" as="geometry" />
        </mxCell>
        <mxCell id="xYJuTDPwRe8UljyxVZdD-12" value="&lt;div style=&quot;font-size: 11px;&quot;&gt;&lt;font style=&quot;font-size: 11px;&quot;&gt;Zoiper&lt;/font&gt;&lt;/div&gt;&lt;div style=&quot;font-size: 11px;&quot;&gt;&lt;font style=&quot;font-size: 11px;&quot;&gt;MacOS&lt;/font&gt;&lt;/div&gt;&lt;div style=&quot;font-size: 11px;&quot;&gt;luison&lt;br&gt;102&lt;/div&gt;" style="shape=parallelogram;perimeter=parallelogramPerimeter;whiteSpace=wrap;html=1;fixedSize=1;size=-13.639999999999873;rounded=1;fontSize=12;strokeWidth=1;sketch=1;curveFitting=1;jiggle=2;fillColor=#FFFFFF;strokeColor=#000000;fillStyle=solid;arcSize=19;verticalAlign=top;gradientColor=#93CDF2;gradientDirection=south;points=[[0,0,0,0,0],[0,0.25,0,0,0],[0,0.5,0,0,0],[0,0.75,0,0,0],[0,1,0,0,0],[0.07,1,0,0,0],[0.13,0,0,0,0],[0.13,1,0,0,0],[0.19,1,0,0,0],[0.25,0,0,0,0],[0.25,1,0,0,0],[0.31,1,0,0,0],[0.37,0,0,0,0],[0.37,1,0,0,0],[0.44,1,0,0,0],[0.5,0,0,0,0],[0.5,1,0,0,0],[0.57,1,0,0,0],[0.63,0,0,0,0],[0.63,1,0,0,0],[0.69,1,0,0,0],[0.75,0,0,0,0],[0.75,1,0,0,0],[0.81,1,0,0,0],[0.85,0,0,0,-3],[0.87,1,0,0,0],[0.94,1,0,0,0],[1,0,0,0,0],[1,0.25,0,0,0],[1,0.5,0,0,0],[1,0.75,0,0,0],[1,1,0,0,0]];" parent="sKDoF6U-TudW3Q7Fj5fA-1" vertex="1">
          <mxGeometry x="244.98122993515474" y="101.00192307692308" width="61.58711597746361" height="91.14807692307693" as="geometry" />
        </mxCell>
        <mxCell id="xYJuTDPwRe8UljyxVZdD-13" value="" style="shape=image;aspect=fixed;image=data:image/svg+xml,PHN2ZyByb2xlPSJpbWciIHZpZXdCb3g9IjAgMCAyNCAyNCIgeG1sbnM9Imh0dHA6Ly93d3cudzMub3JnLzIwMDAvc3ZnIj48dGl0bGU+Wm9pcGVyPC90aXRsZT48cGF0aCBkPSJNMy4zNzUxIDEzLjA3ODZjLS44NjI0LS44NjI0LS44NjI0LTIuOTI1Ni0uMDc0OC0zLjcxMzFzMy4yNjI1LTMuMjI1IDUuMDYyMS01LjAyNDdjMS44MDA0LTEuNzk5NiAzLjM3NTUtMi4wNjI0IDMuODYyOS0yLjA2MjRIMTUuOWMuMjIyMyAwIC41NTI3LjAzMjIuOTIzNi4wODg0bC0xLjA4NyAyLjE2NjRjLS44NzM4LS4wNjI5LTEuNjgxMS0uMDQyMi0yLjI3NC0uMDQyMi0yLjQzNzQgMC0yLjYyNTQuNTYyMi0zLjAzNzguOTc0Ny0uNDEyNS40MTI1LTUuMDYyMSA0LjgzNzUtNS4zOTk3IDUuMTc1Mi0xLjA1MDQgMS4wNTAzLjU2MjEgMS41Mzc2IDIuMzI1MiAxLjUzNzYuNzg3NSAwIC44OTk4LjgyNS43MTE5IDEuNTc1MS0uMTAxOC40MDc5LS4zNjg0IDEuNDMtLjU5MTkgMi41Mjg1aC0yLjEzOWMuMDgzNC0uNDIzNy4xNjQ4LS43NzEyLjIxODQtLjk1NC4xODgtLjYzNy4yMjUzLTEuMi0uMTQ5Ny0xLjJzLTEuMTYyNi0uMTg3MS0yLjAyNDktMS4wNDk1em0xOC4wNDI1LTkuOTE5NWMtLjE5NjUtLjE5NjUtMi4xODQtMS4zNDk3LTIuNzcyNi0xLjYyMDEtLjE2MTQtLjA3MzktLjI5OTMtLjEwNDctLjQxNzItLjEwNDctLjMxMjYgMC0uNDg1My4yMTYyLS41ODcyLjQxOTNsLTMuMTE3OSA2LjIxMzZjLTEuNTY0LjQ0NzMtMi43MTA0IDEuODg3Mi0yLjcxMDQgMy41OTUgMCAxLjQzNTUuODA4OCAyLjY4MTUgMS45OTYgMy4zMDkxLS40NTc1LjU0MzUtMS4xMzM3IDEuMTAwNS0xLjI5MTkgMS4yODUxLS4yMjU0LjI2MjgtLjc4NzUuNTI1Ni0xLjc2My41MjU2SDQuMzY3MmMtLjAyOTgtMS4xODA0LS45OTUxLTIuMTI4Ny0yLjE4MzItMi4xMjg3LTEuMjA2IDAtMi4xODQuOTc4LTIuMTg0IDIuMTg0IDAgMS4yMDY4Ljk3OCAyLjE4NDkgMi4xODQgMi4xODQ5LjkxODUgMCAxLjcwMzYtLjU2NjQgMi4wMjY3LTEuMzY5M2g3LjAzOTRjLjk3NDcgMCAxLjUzNzctLjI2MiAxLjc2MjItLjUyNDguMjEzNC0uMjQ5MSAxLjM2NTgtMS4xNzI4IDEuNjU4NC0xLjgzMTEuMjgyNC4wNjg5LjU3ODQuMTA2My44ODI4LjEwNjMgMi4wNjU5IDAgMy43NDA0LTEuNjc0NiAzLjc0MDQtMy43NDEyYTMuNzI4OCAzLjcyODggMCAwIDAtLjUzMTYtMS45MjIxIDcwMDYuNTM1MiA3MDA2LjUzNTIgMCAwIDEgMi43NTMtNS41NTAyYy4yNzA1LS41Mzk5LjA5ODgtLjgzNDItLjA5NzctMS4wMzA3em0uMjg2NyAxLjc3NDJjLS4yMzc3LjQ3ODYtLjYwMTggMS4yMTI4LS45OTMgMi4wMDE0LjY5NyAxLjAwNjEgMS4xNTE2IDIuNDExOSAxLjE1MTYgNC40MTg4IDAgNS4wOTk1LTIuNzAwMyA1LjY2MjUtMy4yNjI1IDUuNjYyNWgtMi4xMzgxYy0uNDQ5OSAwLS43ODc1LjA3NDgtMS42MTI1Ljg5OTgtLjgyNS44MjUtMS45ODc1IDEuODM3LTIuMzI1MiAyLjE3NDYtLjMzNjguMzM3Ni0uODI1LjU2My0xLjY4NzMuNTYzaC0yLjY2MmMtLjM3NTEgMC0xLjA1MDMtLjE4OC0xLjA1MDMtMS43NjMxIDAtLjIyMS4wMjEyLS40NzQ5LjA0ODgtLjczNzRINS4wNTkxYy0uMDU4MS42NDA5LS4wNzQ5IDEuMjc3Ni4wMDM0IDEuNzg3Mi4yMjUzIDEuNDYyOCAxLjQyNTQgMi42MjU0IDIuNDM3NCAyLjYyNTRoMy45NzUyYzEuODM3OCAwIDUuMjEyNi0zLjQxMjEgNS4yMTI2LTMuNDEyMXMxLjEwNzMuMDY4MSAxLjc2My4wNTAyQzIwLjQ4NzUgMTkuMTQ4NSAyNCAxNy40NjYyIDI0IDExLjg0MTJjMC0zLjMxNDQtLjk5NTItNS40Nzc1LTIuMjk1Ny02LjkwNzl6Ii8+PC9zdmc+;" parent="sKDoF6U-TudW3Q7Fj5fA-1" vertex="1">
          <mxGeometry x="310.65773041352185" y="113.31923076923077" width="36.95192307692308" height="36.95192307692308" as="geometry" />
        </mxCell>
        <mxCell id="sKDoF6U-TudW3Q7Fj5fA-2" value="" style="shape=flexArrow;endArrow=classic;html=1;rounded=0;entryX=0;entryY=0.5;entryDx=0;entryDy=0;entryPerimeter=0;" edge="1" parent="sKDoF6U-TudW3Q7Fj5fA-1">
          <mxGeometry width="50" height="50" relative="1" as="geometry">
            <mxPoint x="147.14000000000001" y="146.26" as="sourcePoint" />
            <mxPoint x="210.07122993515472" y="146.89596153846148" as="targetPoint" />
          </mxGeometry>
        </mxCell>
      </root>
    </mxGraphModel>
  </diagram>
</mxfile>
